# xmcd
#
# Track frame offsets: 
#        150
#        21295
#        40748
#        56483
#        75952
#        92435
#        113092
#        130937
#        142095
#        152023
#
# Disc length: 2211 seconds
#
# Revision: 0
# Processed by: cddbd v1.5.1PL0 Copyright (c) Steve Scherf et al.
# Submitted via: ExactAudioCopy v0.95a4
#
DISCID=7408a10a
DTITLE=Various Artist - Country
DYEAR=2000
DGENRE=
TTITLE0=Shane
TTITLE1=Frajer Joe
TTITLE2=Blizzard
TTITLE3=Balicek karet
TTITLE4=Pres plane
TTITLE5=Uz nechci se vdat
TTITLE6=Otec a syn
TTITLE7=Kovbojuv narek
TTITLE8=Aljaska
TTITLE9=To jsem ja, ten kovboj
EXTD=
EXTT0=
EXTT1=
EXTT2=
EXTT3=
EXTT4=
EXTT5=
EXTT6=
EXTT7=
EXTT8=
EXTT9=
PLAYORDER=
